# xmcd CD database file
# Copyright (C) 1993-1998 Ti Kan
# 
# Track frame offsets:
#     150
#     21562
#     46102
# 
# Disc length: 842 seconds
# 
# Revision: 1
# Processed by: cddbd v1.4b41PL1 Copyright (c) Steve Scherf et al.
# Submitted via: DiscPlay 4.0.3
# 
DISCID=1e034803
DTITLE=Tracy Byrd - I'm From The Country Club Mixes
DYEAR=1900
DGENRE=
TTITLE0=I'm From The Country - Club Mix
TTITLE1=I'm From The Country - Beat Mix
TTITLE2=I'm From The Country - Radio Edit
EXTD=
EXTT0=
EXTT1=
EXTT2=
PLAYORDER=
